<?xml version="1.0" standalone="no"?>
<!DOCTYPE svg PUBLIC "-//W3C//DTD SVG 20010904//EN"
 "http://www.w3.org/TR/2001/REC-SVG-20010904/DTD/svg10.dtd">
<svg version="1.0" xmlns="http://www.w3.org/2000/svg"
 width="721.000000pt" height="721.000000pt" viewBox="0 0 721.000000 721.000000"
 preserveAspectRatio="xMidYMid meet">
<metadata>
Created by potrace 1.11, written by Peter Selinger 2001-2013
</metadata>
<g transform="translate(0.000000,721.000000) scale(0.100000,-0.100000)"
fill="#000000" stroke="none">
<path d="M6535 7203 c-85 -16 -165 -59 -218 -117 -29 -32 -77 -125 -77 -149 0
-8 -10 -25 -22 -39 -13 -13 -55 -60 -94 -104 -40 -43 -84 -92 -99 -109 -15
-16 -44 -48 -64 -70 -20 -22 -77 -85 -127 -140 -49 -55 -106 -117 -125 -139
-37 -42 -41 -46 -151 -167 -42 -46 -85 -94 -95 -105 -10 -12 -55 -61 -99 -110
-45 -49 -98 -108 -119 -131 l-38 -43 -2423 0 c-2385 0 -2423 0 -2485 -20 -136
-42 -249 -158 -285 -292 -11 -45 -14 -446 -14 -2568 0 -2727 -3 -2577 55
-2676 35 -59 113 -138 163 -163 107 -54 -72 -51 2681 -51 1608 0 2551 4 2578
10 69 16 146 57 190 103 65 65 69 71 91 113 50 99 48 -15 48 2443 -1 2249 -1
2295 18 2319 11 14 29 34 40 46 20 21 121 133 217 240 24 27 69 76 99 109 30
32 62 68 73 80 10 12 53 60 95 106 42 46 85 94 95 105 10 12 33 37 50 56 18
19 73 80 122 135 49 55 94 105 100 111 5 6 46 51 90 99 44 49 102 112 128 141
27 29 65 60 85 70 80 38 159 139 178 228 20 93 3 205 -43 283 -13 23 -64 78
-111 122 -48 43 -107 98 -132 121 -78 72 -143 117 -194 134 -49 17 -143 27
-181 19z"/>
</g>
</svg>
